<svg width="17" height="11" viewBox="0 0 17 11" fill="none" xmlns="http://www.w3.org/2000/svg">
<path d="M14.4561 1.72713C14.4561 0.8993 13.7058 0.221985 12.7889 0.221985H10.2881V1.72713H12.7889V3.72145L9.88796 6.99513H6.95369V3.23227H3.6193C1.77705 3.23227 0.284912 4.57938 0.284912 6.24256V8.50028H1.95211C1.95211 9.74955 3.06913 10.758 4.4529 10.758C5.83667 10.758 6.95369 9.74955 6.95369 8.50028H10.6882L14.4561 4.24825V1.72713ZM4.4529 9.25285C3.99442 9.25285 3.6193 8.91419 3.6193 8.50028H5.2865C5.2865 8.91419 4.91138 9.25285 4.4529 9.25285Z" fill="black"/>
<path d="M6.9537 0.974548H2.78571V2.47968H6.9537V0.974548Z" fill="black"/>
<path d="M14.4561 6.24255C13.0723 6.24255 11.9553 7.251 11.9553 8.50026C11.9553 9.74952 13.0723 10.758 14.4561 10.758C15.8398 10.758 16.9568 9.74952 16.9568 8.50026C16.9568 7.251 15.8398 6.24255 14.4561 6.24255ZM14.4561 9.25283C13.9976 9.25283 13.6225 8.91417 13.6225 8.50026C13.6225 8.08635 13.9976 7.74769 14.4561 7.74769C14.9145 7.74769 15.2897 8.08635 15.2897 8.50026C15.2897 8.91417 14.9145 9.25283 14.4561 9.25283Z" fill="black"/>
</svg>
